Coordinates
version=1
nRows=6
nColumns=107
inDegrees=yes

Units are S.I. units (second, meters, Newtons, ...)
If the header above contains a line with 'inDegrees', this indicates whether rotational values are in degrees (yes) or radians (no).

endheader
time	sternoclavicular_r2	sternoclavicular_r3	unrotscap_r3	unrotscap_r2	acromioclavicular_r2	acromioclavicular_r3	acromioclavicular_r1	unrothum_r1	unrothum_r3	unrothum_r2	elv_angle	shoulder_elv	shoulder1_r2	shoulder_rot	elbow_flexion	pro_sup	deviation	flexion	proximal_distal_r1	proximal_distal_r3	cmc_flexion	cmc_abduction	mp_flexion	ip_flexion	mcp2_flexion	mcp2_abduction	pm2_flexion	md2_flexion	mcp3_flexion	mcp3_abduction	pm3_flexion	md3_flexion	mcp4_flexion	mcp4_abduction	pm4_flexion	md4_flexion	mcp5_flexion	mcp5_abduction	pm5_flexion	md5_flexion	bicpt_tx	bicpt_ty	bicpt_tz	bicpt2_tx	bicpt2_ty	bicpt2_tz	ptpt_tx	ptpt_ty	ptpt_tz	FCUpt_tx	FCUpt_ty	FCUpt_tz	EDCpt_tx	EDCpt_ty	EDCpt_tz	APLpt_tx	APLpt_ty	APLpt_tz	FPLpt_tx	FPLpt_ty	FPLpt_tz	FPLpt2_tx	FPLpt2_ty	FPLpt2_tz	PEC1pt2_tx	PEC1pt2_ty	PEC1pt2_tz	PEC1pt3_tx	PEC1pt3_ty	PEC1pt3_tz	PEC2pt2_tx	PEC2pt2_ty	PEC2pt2_tz	PEC2pt3_tx	PEC2pt3_ty	PEC2pt3_tz	PEC3pt2_tx	PEC3pt2_ty	PEC3pt2_tz	PEC3pt3_tx	PEC3pt3_ty	PEC3pt3_tz	DELT2pt2a_tx	DELT2pt2a_ty	DELT2pt2a_tz	DELT2pt2_tx	DELT2pt2_ty	DELT2pt2_tz	LAT1pt2_tx	LAT1pt2_ty	LAT1pt2_tz	LAT1pt3_tx	LAT1pt3_ty	LAT1pt3_tz	LAT2pt2_tx	LAT2pt2_ty	LAT2pt2_tz	LAT2pt3_tx	LAT2pt3_ty	LAT2pt3_tz	LAT3pt2_tx	LAT3pt2_ty	LAT3pt2_tz	LAT3pt3_tx	LAT3pt3_ty	LAT3pt3_tz
      0.00000000	     -0.31557940	      0.13366454	     -0.13366454	      0.31557940	     -0.06389841	      0.51640447	      0.23212025	     -0.23212025	     -0.51640447	      0.06389841	    101.29326233	     74.71622836	     -1.76790094	    -33.71129689	     31.14198311	     67.69798131	      0.26086766	      0.33676839	      0.29833391	      0.16838419	     38.26301126	    -11.62806768	     -3.03864983	      4.12535619	    -25.70069064	     11.53634035	     22.70854051	     -0.14995998	    -20.91785130	     -0.98404349	     13.32730879	     14.80212963	    -11.06742301	     -0.54736816	      0.38146590	     20.79002254	      5.54192161	    -14.23845215	    -13.16524753	      5.00826731	      0.00093008	     -0.03116935	     -0.00487493	      0.01574861	     -0.01865987	     -0.00397540	      0.00254788	     -0.06813445	     -0.00550344	      0.01068723	     -0.18280996	     -0.00029417	     -0.00812374	      0.00262536	     -0.00026031	     -0.00043953	     -0.00017581	     -0.00087907	     -0.00056260	     -0.00168781	     -0.00094940	     -0.00001210	     -0.00014321	     -0.00017185	      0.00244903	      0.00859237	      0.00597730	     -0.00801125	      0.01934322	     -0.01834700	      0.00244903	      0.00859237	      0.00597730	      0.00053962	      0.01793191	     -0.00942255	      0.00389264	      0.00477811	      0.01583086	      0.00000000	      0.00746390	      0.00000000	     -0.00701503	     -0.03241857	     -0.00615250	      0.02043114	     -0.00088564	     -0.00938654	     -0.00087169	      0.01461119	     -0.00597730	      0.00240752	      0.02108660	     -0.01743380	     -0.00585278	      0.01266026	     -0.00535467	     -0.01220366	      0.02673183	     -0.02992803	     -0.02291300	      0.01415459	     -0.00718107	     -0.01519231	      0.03088273	     -0.03739965
      0.03333333	     -0.31551934	      0.13363910	     -0.13363910	      0.31551934	     -0.06388625	      0.51630618	      0.23207608	     -0.23207608	     -0.51630618	      0.06388625	    101.29368362	     74.70200821	     -1.76790829	    -33.71048221	     31.13427402	     67.69573878	      0.26081314	      0.33683341	      0.29828243	      0.16841670	     38.26421127	    -11.62904265	     -3.03801894	      4.12565979	    -25.69827970	     11.53638997	     22.70903550	     -0.14962583	    -20.91370012	     -0.98397049	     13.32826544	     14.80234547	    -11.06419007	     -0.54727853	      0.38281425	     20.79013978	      5.54136435	    -14.23815479	    -13.16529219	      5.00825518	      0.00092983	     -0.03116846	     -0.00487479	      0.01574873	     -0.01865778	     -0.00397572	      0.00254805	     -0.06813434	     -0.00550326	      0.01068698	     -0.18281002	     -0.00029420	     -0.00812347	      0.00262525	     -0.00026027	     -0.00043964	     -0.00017586	     -0.00087928	     -0.00056274	     -0.00168823	     -0.00094963	     -0.00001210	     -0.00014319	     -0.00017183	      0.00244857	      0.00859074	      0.00597617	     -0.00800972	      0.01933954	     -0.01834351	      0.00244857	      0.00859074	      0.00597617	      0.00053951	      0.01792850	     -0.00942076	      0.00389209	      0.00477720	      0.01582949	      0.00000000	      0.00746104	      0.00000000	     -0.00701369	     -0.03241240	     -0.00615013	      0.02043079	     -0.00088562	     -0.00938613	     -0.00087152	      0.01460841	     -0.00597617	      0.00240707	      0.02108258	     -0.01743048	     -0.00585166	      0.01265785	     -0.00535365	     -0.01220134	      0.02672674	     -0.02992233	     -0.02290864	      0.01415189	     -0.00717970	     -0.01518942	      0.03087686	     -0.03739254
      0.06666667	     -0.31794188	      0.13466518	     -0.13466518	      0.31794188	     -0.06437676	      0.52027036	      0.23385795	     -0.23385795	     -0.52027036	      0.06437676	    100.58623104	     75.27556689	     -1.75556091	    -30.56484643	     30.97281949	     64.61268211	      0.28559690	      0.36545734	      0.32083320	      0.18272867	     37.90414521	    -11.91087880	     -2.41432318	      3.92489084	    -24.46177116	     11.51516472	     22.54810526	     -0.55067529	    -19.79939987	     -0.99508437	     13.23581957	     14.80445090	    -10.39679302	     -0.66118830	      0.60526668	     21.22198699	      4.91238586	    -14.24419948	    -12.48222863	      5.01185420	      0.00092448	     -0.03114996	     -0.00487181	      0.01592746	     -0.01861392	     -0.00441791	      0.00277585	     -0.06798704	     -0.00525490	      0.01035170	     -0.18289706	     -0.00033304	     -0.00775350	      0.00247494	     -0.00019443	     -0.00048576	     -0.00019430	     -0.00097152	     -0.00062178	     -0.00186533	     -0.00104925	     -0.00001232	     -0.00014943	     -0.00017931	      0.00246737	      0.00865670	      0.00602205	     -0.00807122	      0.01948802	     -0.01848435	      0.00246737	      0.00865670	      0.00602205	      0.00054366	      0.01806615	     -0.00949309	      0.00391405	      0.00481388	      0.01588420	      0.00000000	      0.00757682	      0.00000000	     -0.00706755	     -0.03266126	     -0.00624628	      0.01912632	     -0.00077642	     -0.00777574	     -0.00087822	      0.01472057	     -0.00602205	      0.00242555	      0.02124446	     -0.01756431	     -0.00589659	      0.01275504	     -0.00539475	     -0.01229502	      0.02693195	     -0.03015207	     -0.02308453	      0.01426055	     -0.00723482	     -0.01530604	      0.03111393	     -0.03767964
      0.10000000	     -0.32304124	      0.13682502	     -0.13682502	      0.32304124	     -0.06540928	      0.52861479	      0.23760871	     -0.23760871	     -0.52861479	      0.06540928	     99.27432972	     76.48288401	     -1.73266392	    -24.38258725	     30.48553673	     57.46457253	      0.30226179	      0.34304977	      0.33543126	      0.17152489	     35.99105430	    -11.97723579	     -0.13426640	      1.99205385	    -23.26185368	     11.08498032	     22.62876476	     -1.92058103	    -18.81662994	     -1.61554281	     12.01402877	     15.78222489	    -10.53968105	     -1.32057816	      0.88007829	     23.73303236	      3.68903019	    -14.30800499	    -11.11950810	      4.92255285	      0.00090837	     -0.03109411	     -0.00486281	      0.01625814	     -0.01848155	     -0.00539183	      0.00330402	     -0.06764552	     -0.00467908	      0.00958562	     -0.18308846	     -0.00039555	     -0.00689573	      0.00213775	     -0.00006161	     -0.00044954	     -0.00017982	     -0.00089908	     -0.00057541	     -0.00172624	     -0.00097101	     -0.00001285	     -0.00018014	     -0.00021616	      0.00250694	      0.00879554	      0.00611864	     -0.00820067	      0.01980059	     -0.01878081	      0.00250694	      0.00879554	      0.00611864	      0.00055238	      0.01835591	     -0.00964535	      0.00395988	      0.00489109	      0.01599676	      0.00000000	      0.00782354	      0.00000000	     -0.00718090	     -0.03318510	     -0.00645111	      0.01617679	     -0.00057020	     -0.00496616	     -0.00089230	      0.01495667	     -0.00611864	      0.00246445	      0.02158519	     -0.01784602	     -0.00599116	      0.01295961	     -0.00548128	     -0.01249221	      0.02736390	     -0.03063567	     -0.02345477	      0.01448927	     -0.00735086	     -0.01555153	      0.03161295	     -0.03828396
      0.13333333	     -0.32175852	      0.13628172	     -0.13628172	      0.32175852	     -0.06514955	      0.52651578	      0.23666522	     -0.23666522	     -0.52651578	      0.06514955	     99.63063720	     76.17918889	     -1.73888265	    -25.95197538	     30.68395801	     60.64685235	      0.32197347	      0.40593305	      0.35211133	      0.20296652	     37.88071849	    -12.76901337	     -3.03773528	      4.96499605	    -24.07524255	     11.41964224	     23.73445697	     -0.77047825	    -19.22866087	     -1.18109933	     14.46404853	     14.52781527	     -9.33663893	     -0.99752666	      1.44805152	     20.13982446	      6.16455229	    -14.24562985	    -12.88352185	      5.04933616	      0.00091493	     -0.03111685	     -0.00486647	      0.01612535	     -0.01853545	     -0.00496709	      0.00306888	     -0.06779757	     -0.00493543	      0.00992472	     -0.18300504	     -0.00037247	     -0.00727761	      0.00228592	     -0.00011732	     -0.00055332	     -0.00022133	     -0.00110664	     -0.00070825	     -0.00212475	     -0.00119517	     -0.00001233	     -0.00014983	     -0.00017979	      0.00249699	      0.00876061	      0.00609434	     -0.00816811	      0.01972196	     -0.01870624	      0.00249699	      0.00876061	      0.00609434	      0.00055018	      0.01828302	     -0.00960705	      0.00394840	      0.00487167	      0.01596877	      0.00000000	      0.00776109	      0.00000000	     -0.00715239	     -0.03305333	     -0.00639927	      0.01697395	     -0.00062139	     -0.00563138	     -0.00088876	      0.01489728	     -0.00609434	      0.00245466	      0.02149948	     -0.01777516	     -0.00596737	      0.01290815	     -0.00545951	     -0.01244261	      0.02725524	     -0.03051402	     -0.02336164	      0.01443174	     -0.00732167	     -0.01548978	      0.03148742	     -0.03813195
      0.16666667	     -0.31947871	      0.13531610	     -0.13531610	      0.31947871	     -0.06468794	      0.52278517	      0.23498834	     -0.23498834	     -0.52278517	      0.06468794	    100.16471773	     75.63942370	     -1.74820412	    -28.58311879	     30.84176189	     62.85280539	      0.30326005	      0.38284879	      0.33629149	      0.19142440	     37.79579122	    -13.16628394	     -2.91478575	      5.11200868	    -23.58560821	     11.42789150	     23.55794275	     -0.74521892	    -18.52177006	     -1.15562908	     14.24172446	     14.70388962	     -8.72641196	     -0.86257724	      2.12159749	     20.43462996	      6.76924064	    -14.23787404	    -12.02542243	      5.01558147	      0.00092015	     -0.03113494	     -0.00486939	      0.01601974	     -0.01857832	     -0.00466435	      0.00290589	     -0.06790296	     -0.00511313	      0.01016162	     -0.18294553	     -0.00035201	     -0.00754232	      0.00239046	     -0.00015915	     -0.00051443	     -0.00020577	     -0.00102886	     -0.00065847	     -0.00197542	     -0.00111117	     -0.00001238	     -0.00015128	     -0.00018153	      0.00247929	      0.00869854	      0.00605116	     -0.00811023	      0.01958222	     -0.01857370	      0.00247929	      0.00869854	      0.00605116	      0.00054629	      0.01815348	     -0.00953898	      0.00392792	      0.00483715	      0.01591849	      0.00000000	      0.00765075	      0.00000000	     -0.00710171	     -0.03281913	     -0.00630766	      0.01823649	     -0.00070903	     -0.00682128	     -0.00088246	      0.01479172	     -0.00605116	      0.00243727	      0.02134714	     -0.01764921	     -0.00592509	      0.01281669	     -0.00542083	     -0.01235445	      0.02706213	     -0.03029782	     -0.02319611	      0.01432948	     -0.00726980	     -0.01538003	      0.03126432	     -0.03786177
